<?xml version="1.0" encoding="UTF-8"?>
<svg xmlns="http://www.w3.org/2000/svg" id="Layer_1" data-name="Layer 1" viewBox="0 0 24 24" width="512" height="512"><path d="M22.84,.67c-1.23-1.01-3.12-.86-4.31,.32l-1.74,1.75-.96-.96c-1.04-1.04-2.73-1.04-3.76,0L7.33,6.52l.71,.71L12.77,2.49c.65-.65,1.7-.65,2.35,0l.96,.96L3.53,16.03c-1.03,1.03-1.6,4.58-1.73,5.47L.1,23.19l.71,.71,1.7-1.7c.89-.13,4.44-.7,5.47-1.74L23.08,5.33c.63-.63,.96-1.49,.92-2.38-.04-.88-.46-1.71-1.15-2.28ZM7.26,19.76c-.58,.58-2.78,1.1-4.4,1.37,.27-1.62,.79-3.82,1.37-4.4L16.79,4.15l3.03,3.03L7.26,19.76ZM22.37,4.62l-1.85,1.85-3.03-3.03,1.74-1.75c.46-.46,1.08-.7,1.68-.7,.47,0,.93,.15,1.29,.45,.48,.39,.76,.94,.79,1.55,.03,.6-.2,1.19-.62,1.62Z"/></svg>
