<?xml version="1.0" encoding="UTF-8"?>
<svg xmlns="http://www.w3.org/2000/svg" id="Layer_1" data-name="Layer 1" viewBox="0 0 24 24" width="512" height="512"><path d="M9,12c3.309,0,6-2.691,6-6S12.309,0,9,0,3,2.691,3,6s2.691,6,6,6Zm0-10c2.206,0,4,1.794,4,4s-1.794,4-4,4-4-1.794-4-4,1.794-4,4-4Zm1.75,14.22c-.568-.146-1.157-.22-1.75-.22-3.86,0-7,3.14-7,7,0,.552-.448,1-1,1s-1-.448-1-1c0-4.962,4.038-9,9-9,.762,0,1.519,.095,2.25,.284,.535,.138,.856,.683,.719,1.218-.137,.535-.68,.856-1.218,.719Zm12.371-4.341c-1.134-1.134-3.11-1.134-4.243,0l-6.707,6.707c-.755,.755-1.172,1.76-1.172,2.829v1.586c0,.552,.448,1,1,1h1.586c1.069,0,2.073-.417,2.828-1.172l6.707-6.707c.567-.567,.879-1.32,.879-2.122s-.312-1.555-.878-2.121Zm-1.415,2.828l-6.708,6.707c-.377,.378-.879,.586-1.414,.586h-.586v-.586c0-.534,.208-1.036,.586-1.414l6.708-6.707c.377-.378,1.036-.378,1.414,0,.189,.188,.293,.439,.293,.707s-.104,.518-.293,.707Z"/></svg>
